<svg width="60" height="60" viewBox="0 0 60 60" fill="none" xmlns="http://www.w3.org/2000/svg" xmlns:xlink="http://www.w3.org/1999/xlink">
<path d="M30.439,57.162L30.439,58.662L31.939,58.662L31.939,57.162L30.439,57.162ZM30.439,57.148L30.439,55.648L28.939,55.648L28.939,57.148L30.439,57.148ZM30.439,55.662C15.805,55.662 3.992,44.033 3.992,29.749L0.992,29.749C0.992,45.745 14.203,58.662 30.439,58.662L30.439,55.662ZM3.992,29.749C3.992,15.464 15.806,3.822 30.439,3.822L30.439,0.822C14.202,0.822 0.992,13.755 0.992,29.749L3.992,29.749ZM30.439,3.822C45.072,3.822 56.886,15.45 56.886,29.735L59.886,29.735C59.886,13.739 46.674,0.822 30.439,0.822L30.439,3.822ZM56.886,29.735C56.886,44.019 45.072,55.648 30.439,55.648L30.439,58.648C46.674,58.648 59.886,45.73 59.886,29.735L56.886,29.735ZM28.939,57.148L28.939,57.162L31.939,57.162L31.939,57.148L28.939,57.148Z" fill="#FFFFFF"/>
<path d="M51.88,19.118C51.366,17.216 49.853,15.718 47.929,15.214C44.434,14.292 30.453,14.292 30.453,14.292C30.453,14.292 16.458,14.292 12.977,15.214C11.053,15.718 9.541,17.216 9.027,19.118C8.087,22.561 8.087,29.749 8.087,29.749C8.087,29.749 8.087,36.937 9.027,40.38C9.541,42.282 11.053,43.78 12.977,44.284C16.472,45.206 30.453,45.206 30.453,45.206C30.453,45.206 44.449,45.206 47.929,44.284C49.853,43.78 51.366,42.282 51.88,40.38C52.82,36.937 52.82,29.749 52.82,29.749C52.82,29.749 52.82,22.561 51.88,19.118Z" fill="#FFFFFF"/>
<path d="M25.871,36.26L25.871,23.223L37.561,29.749L25.871,36.26Z" fill="#000000"/>
</svg>
