<svg width="60" height="58" viewBox="0 0 60 58" fill="none" xmlns="http://www.w3.org/2000/svg" xmlns:xlink="http://www.w3.org/1999/xlink">
<path d="M28.93,54.407C14.296,54.407 2.483,42.778 2.483,28.494L-0.517,28.494C-0.517,44.489 12.694,57.407 28.93,57.407L28.93,54.407ZM2.483,28.494C2.483,14.209 14.296,2.58 28.93,2.58L28.93,-0.42C12.694,-0.42 -0.517,12.498 -0.517,28.494L2.483,28.494ZM28.93,2.58C43.564,2.58 55.377,14.209 55.377,28.494L58.377,28.494C58.377,12.498 45.166,-0.42 28.93,-0.42L28.93,2.58ZM55.377,28.494C55.377,42.778 43.564,54.407 28.93,54.407L28.93,57.407C45.166,57.407 58.377,44.489 58.377,28.494L55.377,28.494Z" fill="#FFFFFF"/>
<path d="M14.039,37.67C16.741,39.369 19.957,40.363 23.408,40.363C34.745,40.363 41.163,30.971 40.781,22.53C41.971,21.68 43.014,20.628 43.836,19.433C42.735,19.908 41.56,20.225 40.326,20.369C41.589,19.634 42.558,18.453 43.014,17.056C41.839,17.747 40.532,18.237 39.137,18.511C38.02,17.344 36.434,16.624 34.672,16.624C30.722,16.624 27.829,20.239 28.724,23.985C23.643,23.74 19.149,21.348 16.124,17.718C14.523,20.412 15.287,23.941 18.019,25.728C17.02,25.699 16.08,25.425 15.243,24.979C15.184,27.759 17.211,30.352 20.148,30.928C19.281,31.158 18.342,31.216 17.387,31.029C18.165,33.406 20.427,35.149 23.1,35.192C20.53,37.165 17.299,38.044 14.053,37.67L14.039,37.67Z" fill="#FFFFFF"/>
</svg>
