<svg width="112" height="96" viewBox="0 0 112 96" fill="none" xmlns="http://www.w3.org/2000/svg" xmlns:xlink="http://www.w3.org/1999/xlink">
<path d="M4,74.143L1,74.143C1,75.8 2.343,77.143 4,77.143L4,74.143ZM108,74.143L108,77.143C109.657,77.143 111,75.8 111,74.143L108,74.143ZM108,3.571L111,3.571C111,1.915 109.657,0.571 108,0.571L108,3.571ZM4,3.571L4,0.571C2.343,0.571 1,1.915 1,3.571L4,3.571ZM4,77.143L108,77.143L108,71.143L4,71.143L4,77.143ZM111,74.143L111,3.571L105,3.571L105,74.143L111,74.143ZM108,0.571L4,0.571L4,6.571L108,6.571L108,0.571ZM1,3.571L1,74.143L7,74.143L7,3.571L1,3.571Z" fill="#333333"/>
<path d="M44.857,92.714L41.857,92.714C41.857,94.371 43.2,95.714 44.857,95.714L44.857,92.714ZM67.143,92.714L67.143,95.714C68.8,95.714 70.143,94.371 70.143,92.714L67.143,92.714ZM67.143,74.143L70.143,74.143C70.143,72.486 68.8,71.143 67.143,71.143L67.143,74.143ZM44.857,74.143L44.857,71.143C43.2,71.143 41.857,72.486 41.857,74.143L44.857,74.143ZM44.857,95.714L67.143,95.714L67.143,89.714L44.857,89.714L44.857,95.714ZM70.143,92.714L70.143,74.143L64.143,74.143L64.143,92.714L70.143,92.714ZM67.143,71.143L44.857,71.143L44.857,77.143L67.143,77.143L67.143,71.143ZM41.857,74.143L41.857,92.714L47.857,92.714L47.857,74.143L41.857,74.143Z" fill="#333333"/>
<path d="M44.857,92.714L41.857,92.714C41.857,94.371 43.2,95.714 44.857,95.714L44.857,92.714ZM67.143,92.714L67.143,95.714C68.8,95.714 70.143,94.371 70.143,92.714L67.143,92.714ZM67.143,74.143L70.143,74.143C70.143,72.486 68.8,71.143 67.143,71.143L67.143,74.143ZM44.857,74.143L44.857,71.143C43.2,71.143 41.857,72.486 41.857,74.143L44.857,74.143ZM44.857,95.714L67.143,95.714L67.143,89.714L44.857,89.714L44.857,95.714ZM70.143,92.714L70.143,74.143L64.143,74.143L64.143,92.714L70.143,92.714ZM67.143,71.143L44.857,71.143L44.857,77.143L67.143,77.143L67.143,71.143ZM41.857,74.143L41.857,92.714L47.857,92.714L47.857,74.143L41.857,74.143Z" fill="#333333"/>
<path d="M22.571,89.714C20.915,89.714 19.571,91.057 19.571,92.714C19.571,94.371 20.915,95.714 22.571,95.714L22.571,89.714ZM85.714,95.714C87.371,95.714 88.714,94.371 88.714,92.714C88.714,91.057 87.371,89.714 85.714,89.714L85.714,95.714ZM22.571,95.714L85.714,95.714L85.714,89.714L22.571,89.714L22.571,95.714Z" fill="#333333"/>
<path d="M4,57.029C2.343,57.029 1,58.372 1,60.029C1,61.686 2.343,63.029 4,63.029L4,57.029ZM104.286,63.029C105.943,63.029 107.286,61.686 107.286,60.029C107.286,58.372 105.943,57.029 104.286,57.029L104.286,63.029ZM4,63.029L104.286,63.029L104.286,57.029L4,57.029L4,63.029Z" fill="#333333"/>
<path d="M79.234,19.297C77.663,18.773 75.964,19.622 75.44,21.194C74.916,22.766 75.765,24.465 77.337,24.989L79.234,19.297ZM89.429,25.857L90.77,28.54C91.855,27.998 92.507,26.855 92.421,25.644C92.335,24.434 91.528,23.395 90.377,23.011L89.429,25.857ZM59.714,40.714L57.218,42.378C58.057,43.637 59.703,44.074 61.056,43.398L59.714,40.714ZM52.286,29.571L54.782,27.907C53.943,26.648 52.297,26.211 50.944,26.888L52.286,29.571ZM21.23,41.745C19.748,42.486 19.147,44.288 19.888,45.77C20.629,47.252 22.431,47.853 23.913,47.112L21.23,41.745ZM77.337,24.989L88.48,28.703L90.377,23.011L79.234,19.297L77.337,24.989ZM88.087,23.174L58.373,38.031L61.056,43.398L90.77,28.54L88.087,23.174ZM62.21,39.05L54.782,27.907L49.79,31.236L57.218,42.378L62.21,39.05ZM50.944,26.888L21.23,41.745L23.913,47.112L53.627,32.255L50.944,26.888Z" fill="#FFFFFF"/>
<path d="M82.868,36.051C82.344,37.623 83.194,39.322 84.766,39.846C86.337,40.37 88.036,39.521 88.56,37.949L82.868,36.051ZM92.275,26.806C92.799,25.234 91.949,23.535 90.377,23.011C88.805,22.487 87.106,23.337 86.583,24.908L92.275,26.806ZM88.56,37.949L92.275,26.806L86.583,24.908L82.868,36.051L88.56,37.949Z" fill="#FFFFFF"/>
</svg>
