<svg width="134" height="212" viewBox="0 0 134 212" fill="none" xmlns="http://www.w3.org/2000/svg" xmlns:xlink="http://www.w3.org/1999/xlink">
<path d="M38.92,171C38.92,181.8 30.16,190.56 19.36,190.56C30.16,190.56 38.92,199.32 38.92,210.12C38.92,199.32 47.68,190.56 58.48,190.56C47.68,190.56 38.92,181.8 38.92,171Z" fill="#FFFFFF"/>
<path d="M131.5,26.98L132.419,26.586L132.419,26.585L131.5,26.98ZM75.86,76.46L75.466,75.541L75.466,75.541L75.86,76.46ZM1.66,82.66L0.741,83.054L0.741,83.055L1.66,82.66ZM130.581,27.374C131.689,29.962 131.236,33.246 129.131,37.116C127.032,40.974 123.371,45.255 118.383,49.69C108.416,58.554 93.325,67.882 75.466,75.541L76.254,77.379C94.255,69.659 109.545,60.226 119.712,51.185C124.792,46.668 128.637,42.21 130.888,38.072C133.132,33.946 133.871,29.978 132.419,26.586L130.581,27.374ZM75.466,75.541C57.617,83.2 40.458,87.705 27.164,88.816C20.512,89.372 14.885,89.074 10.642,87.934C6.385,86.791 3.691,84.854 2.579,82.265L0.741,83.055C2.199,86.446 5.585,88.647 10.123,89.866C14.674,91.088 20.556,91.375 27.331,90.809C40.892,89.675 58.263,85.1 76.254,77.379L75.466,75.541ZM2.579,82.267C1.471,79.678 1.924,76.394 4.029,72.524C6.128,68.666 9.789,64.385 14.777,59.95C24.745,51.086 39.835,41.759 57.694,34.099L56.906,32.261C38.905,39.982 23.616,49.414 13.448,58.455C8.368,62.972 4.523,67.43 2.272,71.568C0.028,75.694 -0.711,79.662 0.741,83.054L2.579,82.267ZM57.694,34.099C75.553,26.44 92.712,21.935 106.003,20.824C112.655,20.268 118.28,20.567 122.521,21.706C126.776,22.849 129.469,24.786 130.581,27.375L132.419,26.585C130.961,23.194 127.576,20.993 123.04,19.775C118.49,18.552 112.61,18.265 105.837,18.831C92.278,19.965 74.907,24.54 56.906,32.261L57.694,34.099Z" fill="#FFFFFF"/>
<path d="M131.5,62.24L132.419,61.846L132.419,61.845L131.5,62.24ZM75.86,111.72L75.466,110.801L75.466,110.801L75.86,111.72ZM1.66,117.92L0.741,118.314L0.741,118.315L1.66,117.92ZM57.3,68.44L57.694,69.359L57.694,69.359L57.3,68.44ZM130.581,62.634C131.689,65.222 131.236,68.506 129.131,72.376C127.032,76.234 123.371,80.515 118.383,84.95C108.416,93.814 93.325,103.142 75.466,110.801L76.254,112.639C94.255,104.919 109.545,95.486 119.712,86.445C124.792,81.928 128.637,77.47 130.888,73.332C133.132,69.207 133.871,65.238 132.419,61.846L130.581,62.634ZM75.466,110.801C57.617,118.46 40.458,122.965 27.164,124.076C20.512,124.632 14.885,124.334 10.642,123.194C6.385,122.051 3.691,120.114 2.579,117.525L0.741,118.315C2.199,121.706 5.585,123.907 10.123,125.126C14.674,126.348 20.556,126.635 27.331,126.069C40.892,124.935 58.263,120.36 76.254,112.639L75.466,110.801ZM2.579,117.526C1.471,114.938 1.924,111.654 4.029,107.784C6.128,103.926 9.789,99.645 14.777,95.21C24.745,86.346 39.835,77.019 57.694,69.359L56.906,67.521C38.905,75.242 23.616,84.674 13.448,93.715C8.368,98.232 4.523,102.69 2.272,106.828C0.028,110.954 -0.711,114.922 0.741,118.314L2.579,117.526ZM57.694,69.359C75.543,61.7 92.702,57.195 105.996,56.084C112.648,55.528 118.275,55.827 122.518,56.966C126.775,58.109 129.469,60.046 130.581,62.635L132.419,61.845C130.961,58.454 127.575,56.253 123.037,55.035C118.486,53.812 112.604,53.525 105.829,54.091C92.268,55.225 74.897,59.8 56.906,67.521L57.694,69.359Z" fill="#FFFFFF"/>
<path d="M131.5,97.72L132.419,97.326L132.419,97.325L131.5,97.72ZM57.3,103.92L57.694,104.839L57.694,104.839L57.3,103.92ZM130.581,98.114C131.689,100.702 131.236,103.986 129.131,107.856C127.032,111.714 123.371,115.995 118.383,120.43C108.416,129.294 93.325,138.622 75.466,146.281L76.254,148.119C94.255,140.399 109.545,130.966 119.712,121.925C124.792,117.408 128.637,112.95 130.888,108.812C133.132,104.686 133.871,100.718 132.419,97.326L130.581,98.114ZM75.466,146.281C57.607,153.94 40.443,158.445 27.149,159.556C20.497,160.112 14.871,159.814 10.63,158.674C6.376,157.531 3.687,155.594 2.579,153.006L0.741,153.794C2.193,157.186 5.576,159.387 10.111,160.605C14.66,161.828 20.541,162.115 27.316,161.549C40.877,160.415 58.253,155.84 76.254,148.119L75.466,146.281ZM2.579,153.006C1.471,150.418 1.924,147.134 4.029,143.264C6.128,139.406 9.789,135.125 14.777,130.69C24.745,121.826 39.835,112.499 57.694,104.839L56.906,103.001C38.905,110.722 23.616,120.154 13.448,129.195C8.368,133.712 4.523,138.17 2.272,142.308C0.028,146.434 -0.711,150.402 0.741,153.794L2.579,153.006ZM57.694,104.839C75.543,97.18 92.702,92.675 105.996,91.564C112.648,91.008 118.275,91.307 122.518,92.446C126.775,93.589 129.469,95.526 130.581,98.115L132.419,97.325C130.961,93.934 127.575,91.733 123.037,90.515C118.486,89.292 112.604,89.005 105.829,89.571C92.268,90.705 74.897,95.28 56.906,103.001L57.694,104.839Z" fill="#FFFFFF"/>
<path d="M131.5,132.98L132.419,132.586L132.419,132.585L131.5,132.98ZM57.3,139.18L57.694,140.099L57.694,140.099L57.3,139.18ZM130.581,133.374C131.689,135.962 131.236,139.246 129.131,143.116C127.032,146.974 123.371,151.255 118.383,155.69C108.416,164.554 93.325,173.882 75.466,181.541L76.254,183.379C94.255,175.659 109.545,166.226 119.712,157.185C124.792,152.668 128.637,148.21 130.888,144.072C133.132,139.946 133.871,135.978 132.419,132.586L130.581,133.374ZM75.466,181.541C57.607,189.2 40.443,193.705 27.149,194.816C20.497,195.372 14.871,195.074 10.63,193.934C6.376,192.791 3.687,190.854 2.579,188.267L0.741,189.054C2.193,192.446 5.576,194.647 10.111,195.865C14.66,197.088 20.541,197.375 27.316,196.809C40.877,195.675 58.253,191.1 76.254,183.379L75.466,181.541ZM2.579,188.267C1.471,185.678 1.924,182.394 4.029,178.524C6.128,174.666 9.789,170.385 14.777,165.95C24.745,157.086 39.835,147.759 57.694,140.099L56.906,138.261C38.905,145.982 23.616,155.414 13.448,164.455C8.368,168.972 4.523,173.43 2.272,177.568C0.028,181.694 -0.711,185.662 0.741,189.054L2.579,188.267ZM57.694,140.099C75.543,132.44 92.702,127.935 105.996,126.824C112.648,126.268 118.275,126.567 122.518,127.706C126.775,128.849 129.469,130.786 130.581,133.375L132.419,132.585C130.961,129.194 127.575,126.993 123.037,125.775C118.486,124.552 112.604,124.265 105.829,124.831C92.268,125.965 74.897,130.54 56.906,138.261L57.694,140.099Z" fill="#FFFFFF"/>
</svg>
