<svg width="826" height="828" viewBox="0 0 826 828" fill="none" xmlns="http://www.w3.org/2000/svg" xmlns:xlink="http://www.w3.org/1999/xlink">
<path d="M419.6,258.932L399.928,258.932L399.928,0L419.6,0L419.6,258.932ZM387.324,260.886L333.414,7.648L314.168,11.727L368.162,265.05L387.408,260.972L387.324,260.886ZM356.238,269.554L250.636,33.057L232.666,41.045L338.184,277.628L356.154,269.64L356.238,269.554ZM327.624,284.512L175.011,75.037L159.085,86.594L311.612,296.068L327.538,284.512L327.624,284.512ZM302.67,305.076L109.861,131.803L96.66,146.42L289.47,319.692L302.67,305.076ZM282.572,330.316L57.826,200.806L47.947,217.802L272.694,347.31L282.572,330.23L282.572,330.316ZM268.18,359.208L21.376,279.158L15.244,297.852L262.048,377.818L268.094,359.124L268.18,359.208ZM260.09,390.396L2.044,363.288L0,382.832L258.046,409.856L260.09,390.31L260.09,390.396ZM260.77,442.148L258.726,422.602L0.681,449.712L2.725,469.256L260.77,442.148ZM270.138,473.08L264.092,454.384L17.288,534.436L23.42,553.13L270.224,473.08L270.138,473.08ZM285.808,501.378L275.93,484.382L51.183,613.806L61.062,630.802L285.808,501.294L285.808,501.378ZM307.014,525.852L293.814,511.236L101.004,684.51L114.204,699.126L307.014,525.852ZM332.818,545.398L316.894,533.84L164.365,743.316L180.291,754.872L332.818,545.398ZM362.114,559.164L344.146,551.176L238.628,787.674L256.598,795.662L362.114,559.164ZM393.626,566.558L374.378,562.478L320.384,815.718L339.632,819.796L393.626,566.558ZM425.988,567.152L406.314,567.152L406.314,826.084L425.988,826.084L425.988,567.152ZM511.748,814.272L457.838,561.034L438.592,565.114L492.5,818.352L511.748,814.272ZM593.164,785.04L487.646,548.542L469.676,556.53L575.194,793.028L593.164,785.04ZM666.744,739.49L514.216,530.016L498.292,541.574L650.818,751.048L666.744,739.49ZM729.254,679.666L536.444,506.392L523.244,521.008L716.054,694.282L729.254,679.666ZM777.882,608.198L553.222,478.774L543.342,495.77L768.004,625.278L777.882,608.198ZM810.586,528.232L563.868,448.182L557.736,466.876L804.538,546.928L810.586,528.232ZM825.914,443.252L567.87,416.144L565.826,435.69L823.87,462.798L825.914,443.252ZM825.234,376.458L823.19,356.914L565.144,383.938L567.188,403.482L825.234,376.458ZM808.626,291.734L802.58,273.038L555.776,353.004L561.824,371.7L808.626,291.734ZM774.646,212.278L764.768,195.283L540.106,324.706L549.986,341.702L774.646,212.278ZM724.912,141.661L711.71,127.044L518.9,300.232L532.102,314.848L724.912,141.661ZM661.55,82.855L645.624,71.298L493.096,280.772L509.022,292.33L661.55,82.855ZM587.286,38.496L569.318,30.508L463.8,267.006L481.77,274.994L587.286,38.496ZM505.444,10.537L486.198,6.458L432.204,259.698L451.452,263.776L505.53,10.452L505.444,10.537Z" fill="#FFFFFF"/>
</svg>
