<svg width="170" height="172" viewBox="0 0 170 172" fill="none" xmlns="http://www.w3.org/2000/svg" xmlns:xlink="http://www.w3.org/1999/xlink">
<path d="M86.358,53.291L82.31,53.291L82.31,0L86.358,0L86.358,53.291ZM79.715,53.693L68.62,1.574L64.659,2.414L75.772,54.55L79.733,53.711L79.715,53.693ZM73.318,55.477L51.584,6.803L47.885,8.448L69.602,57.139L73.3,55.495L73.318,55.477ZM67.429,58.556L36.019,15.443L32.742,17.822L64.133,60.934L67.411,58.556L67.429,58.556ZM62.293,62.788L22.611,27.127L19.894,30.135L59.576,65.796L62.293,62.788ZM58.157,67.983L11.901,41.328L9.868,44.826L56.123,71.48L58.157,67.965L58.157,67.983ZM55.194,73.929L4.399,57.454L3.137,61.301L53.932,77.759L55.177,73.912L55.194,73.929ZM53.529,80.348L0.421,74.769L0,78.791L53.109,84.353L53.529,80.33L53.529,80.348ZM53.669,90.999L53.249,86.976L0.14,92.556L0.561,96.578L53.669,90.999ZM55.597,97.365L54.353,93.517L3.558,109.993L4.82,113.841L55.615,97.365L55.597,97.365ZM58.823,103.189L56.789,99.691L10.534,126.328L12.567,129.826L58.823,103.172L58.823,103.189ZM63.187,108.226L60.47,105.218L20.788,140.88L23.504,143.888L63.187,108.226ZM68.498,112.249L65.22,109.87L33.828,152.983L37.106,155.361L68.498,112.249ZM74.527,115.082L70.829,113.438L49.112,162.112L52.811,163.756L74.527,115.082ZM81.012,116.604L77.051,115.764L65.939,167.884L69.9,168.723L81.012,116.604ZM87.673,116.726L83.624,116.726L83.624,170.017L87.673,170.017L87.673,116.726ZM105.323,167.586L94.228,115.467L90.267,116.307L101.362,168.426L105.323,167.586ZM122.08,161.57L100.363,112.896L96.665,114.54L118.381,163.214L122.08,161.57ZM137.223,152.195L105.832,109.083L102.554,111.462L133.946,154.574L137.223,152.195ZM150.089,139.883L110.406,104.221L107.689,107.229L147.372,142.891L150.089,139.883ZM160.097,125.174L113.859,98.537L111.826,102.035L158.064,128.689L160.097,125.174ZM166.828,108.716L116.05,92.241L114.788,96.088L165.583,112.564L166.828,108.716ZM169.982,91.226L116.874,85.647L116.453,89.67L169.562,95.249L169.982,91.226ZM169.842,77.479L169.422,73.457L116.313,79.019L116.734,83.041L169.842,77.479ZM166.424,60.042L165.18,56.194L114.385,72.652L115.629,76.5L166.424,60.042ZM159.431,43.689L157.398,40.191L111.16,66.828L113.193,70.326L159.431,43.689ZM149.195,29.155L146.478,26.147L106.796,61.791L109.512,64.799L149.195,29.155ZM136.154,17.052L132.877,14.674L101.485,57.786L104.762,60.165L136.154,17.052ZM120.87,7.923L117.172,6.279L95.455,54.953L99.154,56.597L120.87,7.923ZM104.026,2.169L100.065,1.329L88.952,53.449L92.914,54.288L104.044,2.151L104.026,2.169Z" fill="#FF0000"/>
</svg>
