<svg width="60" height="60" viewBox="0 0 60 60" fill="none" xmlns="http://www.w3.org/2000/svg" xmlns:xlink="http://www.w3.org/1999/xlink">
<path d="M29.947,55.326C15.313,55.326 3.5,43.697 3.5,29.413L0.5,29.413C0.5,45.409 13.711,58.326 29.947,58.326L29.947,55.326ZM3.5,29.413C3.5,15.129 15.313,3.5 29.947,3.5L29.947,0.5C13.711,0.5 0.5,13.418 0.5,29.413L3.5,29.413ZM29.947,3.5C44.581,3.5 56.394,15.129 56.394,29.413L59.394,29.413C59.394,13.418 46.183,0.5 29.947,0.5L29.947,3.5ZM56.394,29.413C56.394,43.697 44.581,55.326 29.947,55.326L29.947,58.326C46.183,58.326 59.394,45.409 59.394,29.413L56.394,29.413Z" fill="#FFFFFF"/>
</svg>
