<svg width="278" height="280" viewBox="0 0 278 280" fill="none" xmlns="http://www.w3.org/2000/svg" xmlns:xlink="http://www.w3.org/1999/xlink">
<path d="M141.221,87.147L134.6,87.147L134.6,0L141.221,0L141.221,87.147ZM130.358,87.805L112.215,2.574L105.737,3.947L123.909,89.206L130.387,87.833L130.358,87.805ZM119.896,90.722L84.354,11.126L78.307,13.814L113.82,93.439L119.868,90.75L119.896,90.722ZM110.266,95.756L58.902,25.255L53.542,29.144L104.877,99.645L110.237,95.756L110.266,95.756ZM101.867,102.677L36.975,44.36L32.532,49.279L97.425,107.596L101.867,102.677ZM95.103,111.171L19.462,67.584L16.137,73.304L91.778,116.892L95.103,111.143L95.103,111.171ZM90.259,120.896L7.194,93.954L5.131,100.246L88.195,127.159L90.23,120.867L90.259,120.896ZM87.536,131.392L0.688,122.269L0,128.847L86.848,137.942L87.536,131.364L87.536,131.392ZM87.765,148.81L87.077,142.232L0.229,151.356L0.917,157.934L87.765,148.81ZM90.918,159.221L88.883,152.929L5.819,179.871L7.882,186.163L90.947,159.221L90.918,159.221ZM96.192,168.745L92.867,163.025L17.226,206.584L20.551,212.304L96.192,168.716L96.192,168.745ZM103.329,176.982L98.886,172.063L33.994,230.38L38.437,235.298L103.329,176.982ZM112.014,183.56L106.654,179.67L55.319,250.172L60.679,254.062L112.014,183.56ZM121.874,188.193L115.826,185.505L80.313,265.102L86.361,267.79L121.874,188.193ZM132.479,190.682L126.001,189.309L107.829,274.54L114.307,275.912L132.479,190.682ZM143.371,190.882L136.75,190.882L136.75,278.028L143.371,278.028L143.371,190.882ZM172.234,274.054L154.091,188.823L147.613,190.195L165.757,275.426L172.234,274.054ZM199.636,264.214L164.123,184.618L158.075,187.307L193.588,266.902L199.636,264.214ZM224.4,248.884L173.066,178.383L167.706,182.273L219.04,252.774L224.4,248.884ZM245.44,228.75L180.547,170.432L176.104,175.352L240.996,233.668L245.44,228.75ZM261.806,204.696L186.193,161.137L182.868,166.857L258.48,210.444L261.806,204.696ZM272.812,177.783L189.776,150.841L187.712,157.133L270.776,184.075L272.812,177.783ZM277.972,149.182L191.123,140.058L190.435,146.636L277.284,155.76L277.972,149.182ZM277.742,126.702L277.054,120.123L190.206,129.219L190.894,135.797L277.742,126.702ZM272.152,98.187L270.118,91.894L187.053,118.808L189.088,125.1L272.152,98.187ZM260.716,71.445L257.392,65.725L181.779,109.284L185.104,115.004L260.716,71.445ZM243.978,47.678L239.534,42.758L174.642,101.047L179.085,105.966L243.978,47.678ZM222.652,27.886L217.292,23.996L165.957,94.497L171.317,98.387L222.652,27.886ZM197.658,12.956L191.61,10.268L156.097,89.864L162.145,92.552L197.658,12.956ZM170.113,3.547L163.636,2.174L145.463,87.404L151.941,88.777L170.142,3.518L170.113,3.547Z" fill="#FF0000"/>
</svg>
