<svg width="110" height="110" viewBox="0 0 110 110" fill="none" xmlns="http://www.w3.org/2000/svg" xmlns:xlink="http://www.w3.org/1999/xlink">
<path d="M73.286,16.857C73.286,26.719 81.281,34.714 91.143,34.714L91.143,28.714C84.595,28.714 79.286,23.405 79.286,16.857L73.286,16.857ZM91.143,34.714C101.005,34.714 109,26.719 109,16.857L103,16.857C103,23.405 97.691,28.714 91.143,28.714L91.143,34.714ZM109,16.857C109,6.995 101.005,-1 91.143,-1L91.143,5C97.691,5 103,10.309 103,16.857L109,16.857ZM91.143,-1C81.281,-1 73.286,6.995 73.286,16.857L79.286,16.857C79.286,10.309 84.595,5 91.143,5L91.143,-1Z" fill="#333333"/>
<path d="M73.286,91.143C73.286,101.005 81.281,109 91.143,109L91.143,103C84.595,103 79.286,97.691 79.286,91.143L73.286,91.143ZM91.143,109C101.005,109 109,101.005 109,91.143L103,91.143C103,97.691 97.691,103 91.143,103L91.143,109ZM109,91.143C109,81.281 101.005,73.286 91.143,73.286L91.143,79.286C97.691,79.286 103,84.595 103,91.143L109,91.143ZM91.143,73.286C81.281,73.286 73.286,81.281 73.286,91.143L79.286,91.143C79.286,84.595 84.595,79.286 91.143,79.286L91.143,73.286Z" fill="#333333"/>
<path d="M-1,54C-1,66.941 9.492,77.429 22.429,77.429L22.429,71.429C12.805,71.429 5,63.627 5,54L-1,54ZM22.429,77.429C35.365,77.429 45.857,66.941 45.857,54L39.857,54C39.857,63.627 32.052,71.429 22.429,71.429L22.429,77.429ZM45.857,54C45.857,41.059 35.365,30.571 22.429,30.571L22.429,36.571C32.052,36.571 39.857,44.373 39.857,54L45.857,54ZM22.429,30.571C9.492,30.571 -1,41.059 -1,54L5,54C5,44.373 12.805,36.571 22.429,36.571L22.429,30.571Z" fill="#333333"/>
<path d="M10.143,54C10.143,55.657 11.486,57 13.143,57C14.8,57 16.143,55.657 16.143,54L10.143,54ZM22.429,47.714C24.085,47.714 25.429,46.371 25.429,44.714C25.429,43.057 24.085,41.714 22.429,41.714L22.429,47.714ZM16.143,54C16.143,50.539 18.967,47.714 22.429,47.714L22.429,41.714C15.653,41.714 10.143,47.225 10.143,54L16.143,54Z" fill="#FFFFFF"/>
<path d="M42.457,60.663C41.009,59.859 39.182,60.38 38.378,61.829C37.573,63.277 38.095,65.104 39.543,65.908L42.457,60.663ZM76.701,86.552C78.149,87.357 79.975,86.835 80.78,85.387C81.585,83.938 81.063,82.112 79.615,81.307L76.701,86.552ZM39.543,65.908L76.701,86.552L79.615,81.307L42.457,60.663L39.543,65.908Z" fill="#333333"/>
<path d="M79.614,26.694C81.063,25.89 81.584,24.063 80.78,22.615C79.975,21.166 78.149,20.645 76.7,21.449L79.614,26.694ZM39.543,42.093C38.094,42.898 37.573,44.724 38.377,46.173C39.182,47.621 41.008,48.143 42.457,47.338L39.543,42.093ZM76.7,21.449L39.543,42.093L42.457,47.338L79.614,26.694L76.7,21.449Z" fill="#333333"/>
</svg>
