<svg width="60" height="58" viewBox="0 0 60 58" fill="none" xmlns="http://www.w3.org/2000/svg" xmlns:xlink="http://www.w3.org/1999/xlink">
<path d="M29.422,2.381C44.055,2.381 55.869,14.01 55.869,28.294L58.869,28.294C58.869,12.299 45.657,-0.619 29.422,-0.619L29.422,2.381ZM55.869,28.294C55.869,42.579 44.055,54.207 29.422,54.207L29.422,57.207C45.657,57.207 58.869,44.29 58.869,28.294L55.869,28.294ZM29.422,54.207C14.788,54.207 2.975,42.579 2.975,28.294L-0.025,28.294C-0.025,44.29 13.186,57.207 29.422,57.207L29.422,54.207ZM2.975,28.294C2.975,14.01 14.788,2.381 29.422,2.381L29.422,-0.619C13.186,-0.619 -0.025,12.299 -0.025,28.294L2.975,28.294Z" fill="#FFFFFF"/>
<path d="M25.163,44.86L31.962,44.86L31.962,28.15L36.706,28.15L37.205,22.561L31.948,22.561L31.948,19.377C31.948,18.052 32.212,17.534 33.519,17.534L37.205,17.534L37.205,11.728L32.491,11.728C27.424,11.728 25.148,13.918 25.148,18.095L25.148,22.561L21.609,22.561L21.609,28.222L25.148,28.222L25.148,44.86L25.163,44.86Z" fill="#FFFFFF"/>
</svg>
