<svg width="116" height="116" viewBox="0 0 116 116" fill="none" xmlns="http://www.w3.org/2000/svg" xmlns:xlink="http://www.w3.org/1999/xlink">
<path d="M108.734,43.26C108.236,41.68 106.552,40.802 104.971,41.299C103.391,41.797 102.513,43.481 103.011,45.062L108.734,43.26ZM70.002,12.706C71.592,13.172 73.259,12.261 73.725,10.671C74.191,9.081 73.28,7.415 71.69,6.948L70.002,12.706ZM103.011,45.062C104.481,49.732 105.278,54.702 105.278,59.862L111.278,59.862C111.278,54.081 110.384,48.504 108.734,43.26L103.011,45.062ZM105.278,59.862C105.278,87.001 83.278,109.001 56.139,109.001L56.139,115.001C86.592,115.001 111.278,90.315 111.278,59.862L105.278,59.862ZM56.139,109.001C29,109.001 7,87.001 7,59.862L1,59.862C1,90.315 25.687,115.001 56.139,115.001L56.139,109.001ZM7,59.862C7,32.723 29,10.723 56.139,10.723L56.139,4.723C25.687,4.723 1,29.41 1,59.862L7,59.862ZM56.139,10.723C60.959,10.723 65.609,11.418 70.002,12.706L71.69,6.948C66.757,5.503 61.539,4.723 56.139,4.723L56.139,10.723Z" fill="#333333"/>
<path d="M81.066,55.259C80.767,53.629 79.203,52.551 77.574,52.85C75.944,53.149 74.865,54.713 75.165,56.343L81.066,55.259ZM59.306,40.774C60.941,41.04 62.483,39.931 62.749,38.295C63.016,36.66 61.906,35.118 60.271,34.852L59.306,40.774ZM75.165,56.343C75.374,57.484 75.484,58.658 75.484,59.864L81.484,59.864C81.484,58.292 81.341,56.755 81.066,55.259L75.165,56.343ZM75.484,59.864C75.484,70.546 66.824,79.209 56.139,79.209L56.139,85.209C70.138,85.209 81.484,73.859 81.484,59.864L75.484,59.864ZM56.139,79.209C45.457,79.209 36.793,70.545 36.793,59.864L30.793,59.864C30.793,73.859 42.143,85.209 56.139,85.209L56.139,79.209ZM36.793,59.864C36.793,49.179 45.457,40.519 56.139,40.519L56.139,34.519C42.144,34.519 30.793,45.865 30.793,59.864L36.793,59.864ZM56.139,40.519C57.22,40.519 58.277,40.606 59.306,40.774L60.271,34.852C58.924,34.632 57.545,34.519 56.139,34.519L56.139,40.519Z" fill="#333333"/>
<path d="M54.018,57.742C52.846,58.914 52.846,60.813 54.018,61.985C55.189,63.156 57.089,63.156 58.26,61.985L54.018,57.742ZM110.399,9.845C111.571,8.674 111.571,6.774 110.399,5.603C109.228,4.431 107.328,4.431 106.157,5.603L110.399,9.845ZM58.26,61.985L110.399,9.845L106.157,5.603L54.018,57.742L58.26,61.985Z" fill="#FFFFFF"/>
<path d="M97.105,18.897L94.105,18.897C94.105,20.554 95.449,21.897 97.105,21.897L97.105,18.897ZM97.105,4L100.105,4C100.105,2.787 99.375,1.693 98.254,1.228C97.133,0.764 95.842,1.021 94.984,1.879L97.105,4ZM82.209,18.897L80.087,16.776C79.525,17.338 79.209,18.101 79.209,18.897L82.209,18.897ZM82.209,33.794L79.209,33.794C79.209,35.451 80.552,36.794 82.209,36.794L82.209,33.794ZM97.105,33.794L97.105,36.794C97.901,36.794 98.664,36.478 99.227,35.915L97.105,33.794ZM112.002,18.897L114.124,21.018C114.982,20.16 115.238,18.87 114.774,17.749C114.31,16.628 113.216,15.897 112.002,15.897L112.002,18.897ZM100.105,18.897L100.105,4L94.105,4L94.105,18.897L100.105,18.897ZM94.984,1.879L80.087,16.776L84.33,21.018L99.227,6.121L94.984,1.879ZM79.209,18.897L79.209,33.794L85.209,33.794L85.209,18.897L79.209,18.897ZM82.209,36.794L97.105,36.794L97.105,30.794L82.209,30.794L82.209,36.794ZM99.227,35.915L114.124,21.018L109.881,16.776L94.984,31.672L99.227,35.915ZM112.002,15.897L97.105,15.897L97.105,21.897L112.002,21.897L112.002,15.897Z" fill="#FFFFFF"/>
</svg>
