<svg width="60" height="58" viewBox="0 0 60 58" fill="none" xmlns="http://www.w3.org/2000/svg" xmlns:xlink="http://www.w3.org/1999/xlink">
<path d="M29.048,54.207C14.415,54.207 2.601,42.579 2.601,28.294L-0.399,28.294C-0.399,44.29 12.813,57.207 29.048,57.207L29.048,54.207ZM2.601,28.294C2.601,14.01 14.415,2.381 29.048,2.381L29.048,-0.619C12.813,-0.619 -0.399,12.299 -0.399,28.294L2.601,28.294ZM29.048,2.381C43.682,2.381 55.495,14.01 55.495,28.294L58.495,28.294C58.495,12.299 45.284,-0.619 29.048,-0.619L29.048,2.381ZM55.495,28.294C55.495,42.579 43.682,54.207 29.048,54.207L29.048,57.207C45.284,57.207 58.495,44.29 58.495,28.294L55.495,28.294Z" fill="#FFFFFF"/>
<path d="M29.048,15.978C33.146,15.978 33.63,15.992 35.246,16.064C36.744,16.136 37.551,16.381 38.095,16.583C38.814,16.856 39.314,17.188 39.857,17.706C40.4,18.239 40.723,18.729 41.003,19.435C41.208,19.968 41.458,20.76 41.531,22.23C41.605,23.814 41.619,24.29 41.619,28.309C41.619,32.328 41.605,32.803 41.531,34.388C41.458,35.857 41.208,36.649 41.003,37.182C40.723,37.888 40.386,38.378 39.857,38.911C39.328,39.429 38.814,39.761 38.095,40.034C37.551,40.236 36.744,40.481 35.246,40.553C33.63,40.625 33.146,40.639 29.048,40.639C24.951,40.639 24.466,40.625 22.851,40.553C21.353,40.481 20.545,40.236 20.002,40.034C19.282,39.761 18.783,39.429 18.24,38.911C17.696,38.378 17.373,37.888 17.094,37.182C16.889,36.649 16.639,35.857 16.566,34.388C16.492,32.803 16.477,32.328 16.477,28.309C16.477,24.29 16.492,23.814 16.566,22.23C16.639,20.76 16.889,19.968 17.094,19.435C17.373,18.729 17.711,18.239 18.24,17.706C18.783,17.173 19.282,16.856 20.002,16.583C20.545,16.381 21.353,16.136 22.851,16.064C24.466,15.992 24.951,15.978 29.048,15.978ZM29.048,13.27C24.892,13.27 24.364,13.284 22.734,13.356C21.103,13.428 19.987,13.687 19.018,14.062C18.005,14.451 17.153,14.955 16.301,15.79C15.449,16.626 14.921,17.461 14.539,18.455C14.157,19.406 13.907,20.501 13.834,22.1C13.761,23.699 13.746,24.217 13.746,28.294C13.746,32.371 13.761,32.889 13.834,34.488C13.907,36.087 14.172,37.182 14.539,38.133C14.935,39.127 15.449,39.962 16.301,40.798C17.153,41.633 18.005,42.152 19.018,42.527C19.987,42.901 21.103,43.146 22.734,43.232C24.364,43.304 24.892,43.319 29.048,43.319C33.204,43.319 33.733,43.304 35.363,43.232C36.993,43.16 38.109,42.901 39.079,42.527C40.092,42.138 40.944,41.633 41.796,40.798C42.647,39.962 43.176,39.127 43.558,38.133C43.94,37.182 44.189,36.087 44.277,34.488C44.351,32.889 44.366,32.371 44.366,28.294C44.366,24.217 44.351,23.699 44.277,22.1C44.204,20.501 43.94,19.406 43.558,18.455C43.161,17.461 42.647,16.626 41.796,15.79C40.944,14.955 40.092,14.436 39.079,14.062C38.109,13.687 36.993,13.442 35.363,13.356C33.733,13.284 33.204,13.27 29.048,13.27Z" fill="#FFFFFF"/>
<path d="M29.048,20.573C24.701,20.573 21.177,24.03 21.177,28.294C21.177,32.558 24.701,36.015 29.048,36.015C33.395,36.015 36.92,32.558 36.92,28.294C36.92,24.03 33.395,20.573 29.048,20.573ZM29.048,33.307C26.229,33.307 23.938,31.06 23.938,28.294C23.938,25.528 26.229,23.281 29.048,23.281C31.868,23.281 34.159,25.528 34.159,28.294C34.159,31.06 31.868,33.307 29.048,33.307Z" fill="#FFFFFF"/>
<path d="M39.064,20.27C39.064,21.264 38.242,22.071 37.228,22.071C36.215,22.071 35.393,21.264 35.393,20.27C35.393,19.276 36.215,18.47 37.228,18.47C38.242,18.47 39.064,19.276 39.064,20.27Z" fill="#FFFFFF"/>
</svg>
