<svg width="40" height="76" viewBox="0 0 40 76" fill="none" xmlns="http://www.w3.org/2000/svg" xmlns:xlink="http://www.w3.org/1999/xlink">
<path d="M0.586,72.586C-0.195,73.367 -0.195,74.633 0.586,75.414C1.367,76.195 2.633,76.195 3.414,75.414L0.586,72.586ZM38,38L39.414,39.414C40.195,38.633 40.195,37.367 39.414,36.586L38,38ZM3.414,0.586C2.633,-0.195 1.367,-0.195 0.586,0.586C-0.195,1.367 -0.195,2.633 0.586,3.414L3.414,0.586ZM3.414,75.414L39.414,39.414L36.586,36.586L0.586,72.586L3.414,75.414ZM39.414,36.586L3.414,0.586L0.586,3.414L36.586,39.414L39.414,36.586Z" fill="#000000"/>
</svg>
